<svg width="92" height="35" viewBox="0 0 92 35" fill="none" xmlns="http://www.w3.org/2000/svg">
<path d="M26.2812 17L28.3516 11.625H30.8828L26.9062 21.0078L26.5859 21.625C25.9974 22.651 25.0964 23.1641 23.8828 23.1641L23.0625 23.1328L23.0391 21.25C23.1641 21.2708 23.3672 21.2812 23.6484 21.2812C23.9766 21.2812 24.2396 21.224 24.4375 21.1094C24.6406 20.9948 24.8099 20.7839 24.9453 20.4766L25.2344 19.7344L21.2422 11.625H23.7656L26.2812 17ZM31.875 23V14.5469H35.4062C36.5573 14.5469 37.4401 14.75 38.0547 15.1562C38.6693 15.5625 38.9766 16.1458 38.9766 16.9062C38.9766 17.2969 38.8464 17.6484 38.5859 17.9609C38.3307 18.2682 37.9557 18.5052 37.4609 18.6719C38.0651 18.7865 38.5391 19.013 38.8828 19.3516C39.2318 19.6849 39.4062 20.0964 39.4062 20.5859C39.4062 21.3724 39.1094 21.9714 38.5156 22.3828C37.9271 22.7943 37.0703 23 35.9453 23H31.875ZM34.1328 19.4922V21.1953H35.9531C36.75 21.1953 37.1484 20.9167 37.1484 20.3594C37.1484 19.7917 36.7682 19.5026 36.0078 19.4922H34.1328ZM34.1328 17.9766H35.5312C36.3229 17.9661 36.7188 17.7109 36.7188 17.2109C36.7188 16.9036 36.6094 16.6849 36.3906 16.5547C36.1771 16.4245 35.849 16.3594 35.4062 16.3594H34.1328V17.9766ZM43.1719 23H40.9062V14.5469H43.1719V23ZM40.7734 12.3594C40.7734 12.0208 40.8854 11.7422 41.1094 11.5234C41.3385 11.3047 41.6484 11.1953 42.0391 11.1953C42.4245 11.1953 42.7318 11.3047 42.9609 11.5234C43.1901 11.7422 43.3047 12.0208 43.3047 12.3594C43.3047 12.7031 43.1875 12.9844 42.9531 13.2031C42.724 13.4219 42.4193 13.5312 42.0391 13.5312C41.6589 13.5312 41.3516 13.4219 41.1172 13.2031C40.888 12.9844 40.7734 12.7031 40.7734 12.3594ZM50.1328 14.5469H52.3906V23H50.1328V17.7812L47.3047 23H45.0391V14.5469H47.3047V19.7578L50.1328 14.5469ZM51.4609 11.1172C51.4609 11.8099 51.2109 12.3698 50.7109 12.7969C50.2161 13.224 49.5651 13.4375 48.7578 13.4375C47.9505 13.4375 47.2969 13.2266 46.7969 12.8047C46.3021 12.3828 46.0547 11.8203 46.0547 11.1172H47.6562C47.6562 11.4453 47.7526 11.7005 47.9453 11.8828C48.1432 12.0599 48.4141 12.1484 48.7578 12.1484C49.0964 12.1484 49.362 12.0599 49.5547 11.8828C49.7474 11.7005 49.8438 11.4453 49.8438 11.1172H51.4609ZM61.1328 16.3594H58.4219V23H56.1562V16.3594H53.4922V14.5469H61.1328V16.3594ZM67.3672 14.5469H69.625V23H67.3672V17.7812L64.5391 23H62.2734V14.5469H64.5391V19.7578L67.3672 14.5469Z" fill="#4B71E2"/>
<rect x="1" y="1" width="90" height="33" rx="4" stroke="#4B71E2" stroke-width="2"/>
</svg>
