<svg width="28" height="24" viewBox="0 0 28 24" fill="none" xmlns="http://www.w3.org/2000/svg">
<path d="M26.2656 0.629342C25.9586 0.414555 25.6123 0.262349 25.2465 0.181418C24.8807 0.100487 24.5025 0.0924159 24.1336 0.157667C23.7647 0.222918 23.4122 0.360213 23.0964 0.561708C22.7805 0.763203 22.5075 1.02495 22.2928 1.332L11.4473 16.8208L4.3362 11.9633C3.76586 11.5732 3.0639 11.4256 2.38475 11.5531C1.7056 11.6805 1.10488 12.0725 0.714751 12.6428C0.324621 13.2132 0.177034 13.9151 0.304459 14.5943C0.431884 15.2734 0.823882 15.8741 1.39422 16.2643L10.9263 22.775C11.2199 22.9754 11.5516 23.1131 11.9008 23.1794C12.2501 23.2457 12.6092 23.2392 12.9558 23.1604C13.3255 23.0958 13.6788 22.9588 13.9954 22.7574C14.3121 22.5559 14.5859 22.294 14.8011 21.9865L26.9687 4.60428C27.4023 3.9836 27.5718 3.21614 27.4399 2.47055C27.308 1.72496 26.8854 1.06225 26.2651 0.628041" fill="#303239"/>
</svg>
