<svg width="36" height="36" viewBox="0 0 36 36" fill="none" xmlns="http://www.w3.org/2000/svg">
<path d="M18 36C27.9411 36 36 27.9411 36 18C36 8.05887 27.9411 0 18 0C8.05887 0 0 8.05887 0 18C0 27.9411 8.05887 36 18 36Z" fill="white"/>
<path d="M6.20312 11.0029V24.9826L13.0205 17.9645L6.20312 11.0029Z" fill="#002895"/>
<path d="M29.7981 11.0029V24.9826L23.0146 17.9928L29.7981 11.0029Z" fill="#002895"/>
<path d="M6.71973 10.3689H29.2377L20.3878 19.5839C19.7579 20.2397 18.8879 20.6104 17.9787 20.6104C17.0695 20.6104 16.1995 20.2397 15.5697 19.5839L6.71973 10.3689Z" fill="#002895"/>
<path d="M20.8983 20.0742C20.139 20.8648 19.0749 21.3183 17.9787 21.3183C16.8826 21.3183 15.8184 20.8649 15.0592 20.0743L13.5581 18.5112L6.71973 25.6316H29.2377L22.3993 18.5112L20.8983 20.0742Z" fill="#002895"/>
</svg>



