<svg width="36" height="36" viewBox="0 0 36 36" fill="none" xmlns="http://www.w3.org/2000/svg">
<g clip-path="url(#clip0)">
<path d="M18 35.999C27.9411 35.999 36 27.9402 36 17.999C36 8.0579 27.9411 -0.000976562 18 -0.000976562C8.05888 -0.000976562 0 8.0579 0 17.999C0 27.9402 8.05888 35.999 18 35.999Z" fill="white"/>
<path d="M28.7542 19.4479V26.8689H24.4517V19.9452C24.4517 18.2068 23.8305 17.0196 22.2726 17.0196C21.0838 17.0196 20.3776 17.8188 20.0657 18.5928C19.9525 18.8694 19.9233 19.2534 19.9233 19.6414V26.8686H15.6204C15.6204 26.8686 15.6782 15.1422 15.6204 13.9283H19.9236V15.7621C19.9149 15.7765 19.9027 15.7906 19.895 15.8044H19.9236V15.7621C20.4954 14.8823 21.5151 13.6245 23.8013 13.6245C26.6319 13.6245 28.7542 15.4739 28.7542 19.4479ZM11.1193 7.69067C9.64749 7.69067 8.68457 8.65681 8.68457 9.92616C8.68457 11.1686 9.61958 12.1626 11.0628 12.1626H11.0908C12.5914 12.1626 13.5245 11.1686 13.5245 9.92616C13.496 8.65681 12.5914 7.69067 11.1193 7.69067ZM8.9403 26.8689H13.2415V13.9283H8.9403V26.8689Z" fill="#002895"/>
</g>
<defs>
<clipPath id="clip0">
<rect width="36" height="36" fill="white"/>
</clipPath>
</defs>
</svg>


